<?xml version="1.0" encoding="UTF-8" standalone="no"?>
<svg width="100%" height="100%" viewBox="0 0 800 600" version="1.1" xmlns="http://www.w3.org/2000/svg" xmlns:xlink="http://www.w3.org/1999/xlink" xml:space="preserve" xmlns:serif="http://www.serif.com/" style="fill-rule:evenodd;clip-rule:evenodd;stroke-linejoin:round;stroke-miterlimit:2;">
    <g transform="matrix(0.796858,0,0,0.796858,-172.21,231.122)">
        <path d="M287.42,77.9l13.9,36.64l15.72,-35.95l35.96,1.01l-27.77,-26.44l9.99,-31.38l-34.35,15.17l-32.91,-28.28l11.22,44.51l-12.22,20.34l20.46,4.38Z" style="fill:#fff;fill-rule:nonzero;"/>
    </g>
    <g id="head" transform="matrix(1,0,0,1,93.4106,191.43)">
        <g transform="matrix(0.796858,0,0,0.796858,-264.38,40.717)">
            <path d="M330.96,24.4l-9.02,28.35l24.91,23.7l-32.1,-0.9l-14.3,32.7l-12.55,-33.08l-18.78,-4.02l14.87,-18.41l-13.55,-39.44l28.94,28l31.58,-16.9Z" style="fill:#1d1d1b;fill-rule:nonzero;"/>
        </g>
        <g transform="matrix(0.796858,0,0,0.796858,-264.38,40.717)">
            <path d="M304.43,56.95l10.32,18.6l-14.3,32.7l3.98,-51.3Z" style="fill:#006b79;fill-rule:nonzero;"/>
        </g>
        <g transform="matrix(0.796858,0,0,0.796858,-264.38,40.717)">
            <path d="M300.01,48.02l0.4,8.23l-31.29,14.9l11.2,-18.65l-9.88,-39.2l29.91,25.7l-0.34,9.02Z" style="fill:#006b79;fill-rule:nonzero;"/>
        </g>
        <g transform="matrix(0.796858,0,0,0.796858,-264.38,40.717)">
            <path d="M330.96,24.4l-43.06,50.77l11.64,-36.89l31.42,-13.88Z" style="fill:#004e67;fill-rule:nonzero;"/>
        </g>
    </g>
    <g transform="matrix(1.09661,0,0,1.09661,140.15,-134.136)">
        <path d="M46.11,390.8l-1.42,0l-24.79,-35.96l0,35.96l-1.45,-0l0,-38.39l1.45,-0l24.79,35.89l0,-35.89l1.42,-0l0,38.39Z" style="fill:#fff;fill-rule:nonzero;"/>
    </g>
    <g transform="matrix(1.09661,0,0,1.09661,140.15,-134.136)">
        <path d="M105.44,374.48c0,3.32 -0.59,6.26 -1.78,8.82c-1.19,2.56 -2.88,4.54 -5.08,5.93c-2.2,1.39 -4.73,2.1 -7.59,2.1c-4.32,0 -7.82,-1.54 -10.49,-4.61c-2.67,-3.07 -4.01,-7.22 -4.01,-12.45l0,-5.54c0,-3.3 0.59,-6.24 1.78,-8.81c1.19,-2.57 2.88,-4.55 5.09,-5.95c2.21,-1.4 4.73,-2.1 7.58,-2.1c2.87,0 5.4,0.7 7.61,2.1c2.21,1.4 3.91,3.38 5.1,5.96c1.2,2.58 1.79,5.51 1.79,8.79l0,5.76Zm-1.42,-5.8c0,-4.64 -1.18,-8.36 -3.53,-11.17c-2.36,-2.8 -5.54,-4.21 -9.54,-4.21c-3.96,0 -7.11,1.39 -9.47,4.18c-2.36,2.79 -3.53,6.58 -3.53,11.38l0,5.62c0,3.06 0.53,5.76 1.6,8.11c1.06,2.35 2.58,4.15 4.55,5.42c1.97,1.27 4.27,1.9 6.91,1.9c4.01,0 7.18,-1.4 9.52,-4.19c2.34,-2.79 3.51,-6.61 3.51,-11.44l0,-5.6l-0.02,0Z" style="fill:#fff;fill-rule:nonzero;"/>
    </g>
    <g transform="matrix(1.09661,0,0,1.09661,140.15,-134.136)">
        <path d="M150.43,374.38l-13.32,0l0,16.43l-1.42,0l0,-38.39l12.23,0c3.85,0 6.91,0.99 9.19,2.98c2.28,1.99 3.42,4.68 3.42,8.09c0,2.62 -0.81,4.91 -2.44,6.87c-1.63,1.96 -3.7,3.18 -6.21,3.65l10.26,16.43l0,0.37l-1.5,0l-10.21,-16.43Zm-13.33,-1.43l12.11,0c2.95,0 5.34,-0.9 7.16,-2.69c1.82,-1.79 2.73,-4.05 2.73,-6.78c0,-2.99 -1.01,-5.34 -3.02,-7.07c-2.01,-1.73 -4.77,-2.58 -8.27,-2.58l-10.71,0l0,19.12Z" style="fill:#fff;fill-rule:nonzero;"/>
    </g>
    <g transform="matrix(1.09661,0,0,1.09661,140.15,-134.136)">
        <path d="M216.2,353.84l-13.98,-0l-0,36.97l-1.42,-0l-0,-36.97l-13.97,-0l-0,-1.42l29.37,-0l-0,1.42Z" style="fill:#fff;fill-rule:nonzero;"/>
    </g>
    <g transform="matrix(1.09661,0,0,1.09661,140.15,-134.136)">
        <path d="M271.89,390.8l-1.42,0l0,-19.04l-24.52,0l0,19.04l-1.42,0l0,-38.39l1.42,0l0,17.93l24.52,0l0,-17.93l1.42,0l0,38.39Z" style="fill:#fff;fill-rule:nonzero;"/>
    </g>
    <g transform="matrix(1.09661,0,0,1.09661,140.15,-134.136)">
        <path d="M338.55,390.8l0,-38.39l10.63,0c2.97,0 5.66,0.7 8.07,2.11c2.41,1.41 4.3,3.38 5.67,5.92c1.37,2.54 2.07,5.38 2.11,8.53l0,4.98c0,3.2 -0.67,6.08 -2.02,8.65c-1.35,2.57 -3.22,4.57 -5.63,6.01c-2.41,1.44 -5.1,2.17 -8.07,2.19l-10.76,0Zm1.43,-36.96l-0,35.54l9.2,-0c2.69,-0 5.14,-0.66 7.34,-1.96c2.21,-1.31 3.93,-3.14 5.18,-5.48c1.25,-2.34 1.88,-4.95 1.9,-7.82l-0,-4.93c-0,-2.87 -0.61,-5.47 -1.83,-7.8c-1.22,-2.34 -2.93,-4.17 -5.12,-5.5c-2.19,-1.33 -4.61,-2.01 -7.26,-2.04l-9.41,-0l0,-0.01Z" style="fill:#e9425d;fill-rule:nonzero;"/>
    </g>
    <g transform="matrix(1.09661,0,0,1.09661,140.15,-134.136)">
        <path d="M416.16,371.77l-19.25,0l0,17.61l21.94,0l0,1.42l-23.36,0l0,-38.39l23.36,0l0,1.42l-21.94,0l0,16.51l19.25,0l0,1.43Z" style="fill:#e9425d;fill-rule:nonzero;"/>
    </g>
    <g transform="matrix(1.09661,0,0,1.09661,140.15,-134.136)">
        <path d="M468.5,371.77l-19.25,0l0,17.61l21.94,0l0,1.42l-23.36,0l0,-38.39l23.36,0l0,1.42l-21.94,0l0,16.51l19.25,0l0,1.43Z" style="fill:#e9425d;fill-rule:nonzero;"/>
    </g>
    <g transform="matrix(1.09661,0,0,1.09661,140.15,-134.136)">
        <path d="M514.78,374.38l-13.32,0l0,16.43l-1.42,0l0,-38.39l12.23,0c3.85,0 6.91,0.99 9.19,2.98c2.28,1.99 3.41,4.68 3.41,8.09c0,2.62 -0.81,4.91 -2.44,6.87c-1.63,1.96 -3.7,3.18 -6.21,3.65l10.26,16.43l0,0.37l-1.5,0l-10.2,-16.43Zm-13.32,-1.43l12.11,0c2.95,0 5.34,-0.9 7.16,-2.69c1.82,-1.79 2.73,-4.05 2.73,-6.78c0,-2.99 -1.01,-5.34 -3.02,-7.07c-2.01,-1.72 -4.77,-2.58 -8.27,-2.58l-10.71,0l0,19.12Z" style="fill:#e9425d;fill-rule:nonzero;"/>
    </g>
    <g transform="matrix(1.09661,0,0,1.09661,140.15,-134.136)">
        <path d="M580.1,381.6c0,-1.63 -0.38,-3.02 -1.15,-4.15c-0.77,-1.13 -1.97,-2.14 -3.61,-3.01c-1.64,-0.87 -4.13,-1.76 -7.45,-2.68c-3.32,-0.92 -5.81,-1.84 -7.48,-2.77c-1.67,-0.93 -2.88,-2.01 -3.65,-3.24c-0.77,-1.23 -1.16,-2.72 -1.16,-4.48c0,-2.79 1.18,-5.06 3.53,-6.79c2.36,-1.73 5.42,-2.6 9.2,-2.6c2.46,0 4.67,0.48 6.63,1.44c1.96,0.96 3.48,2.3 4.55,4.03c1.07,1.73 1.61,3.69 1.61,5.87l-1.42,0c0,-2.87 -1.05,-5.23 -3.16,-7.11c-2.11,-1.88 -4.84,-2.81 -8.2,-2.81c-3.38,0 -6.1,0.75 -8.19,2.25c-2.09,1.5 -3.12,3.39 -3.12,5.66c0,2.3 0.91,4.16 2.72,5.56c1.81,1.41 4.8,2.65 8.96,3.73c4.16,1.08 7.21,2.33 9.15,3.76c2.46,1.81 3.69,4.24 3.69,7.28c0,1.93 -0.54,3.64 -1.63,5.13c-1.09,1.49 -2.64,2.63 -4.64,3.44c-2,0.81 -4.25,1.21 -6.75,1.21c-2.78,0 -5.27,-0.46 -7.49,-1.38c-2.22,-0.92 -3.88,-2.24 -5,-3.94c-1.12,-1.7 -1.67,-3.72 -1.67,-6.04l1.42,0c0,3.15 1.18,5.59 3.53,7.33c2.36,1.74 5.42,2.61 9.2,2.61c3.36,0 6.13,-0.77 8.31,-2.31c2.18,-1.53 3.27,-3.53 3.27,-5.99Z" style="fill:#e9425d;fill-rule:nonzero;"/>
    </g>
</svg>
