<?xml version="1.0" encoding="UTF-8" standalone="no"?>
<!DOCTYPE svg PUBLIC "-//W3C//DTD SVG 1.1//EN" "http://www.w3.org/Graphics/SVG/1.1/DTD/svg11.dtd">
<svg width="100%" height="100%" viewBox="0 0 738 85" version="1.1" xmlns="http://www.w3.org/2000/svg" xmlns:xlink="http://www.w3.org/1999/xlink" xml:space="preserve" xmlns:serif="http://www.serif.com/" style="fill-rule:evenodd;clip-rule:evenodd;stroke-linejoin:round;stroke-miterlimit:2;">
    <g transform="matrix(1,0,0,1,-40.519,-238.031)">
        <g transform="matrix(0.796858,0,0,0.796858,-172.21,231.122)">
            <path d="M287.42,77.9L301.32,114.54L317.04,78.59L353,79.6L325.23,53.16L335.22,21.78L300.87,36.95L267.96,8.67L279.18,53.18L266.96,73.52L287.42,77.9Z" style="fill:white;fill-rule:nonzero;"/>
        </g>
        <g id="head" transform="matrix(1,0,0,1,93.4106,191.43)">
            <g transform="matrix(0.796858,0,0,0.796858,-264.38,40.717)">
                <path d="M330.96,24.4L321.94,52.75L346.85,76.45L314.75,75.55L300.45,108.25L287.9,75.17L269.12,71.15L283.99,52.74L270.44,13.3L299.38,41.3L330.96,24.4Z" style="fill:rgb(29,29,27);fill-rule:nonzero;"/>
            </g>
            <g transform="matrix(0.796858,0,0,0.796858,-264.38,40.717)">
                <path d="M304.43,56.95L314.75,75.55L300.45,108.25L304.43,56.95Z" style="fill:rgb(0,107,121);fill-rule:nonzero;"/>
            </g>
            <g transform="matrix(0.796858,0,0,0.796858,-264.38,40.717)">
                <path d="M300.01,48.02L300.41,56.25L269.12,71.15L280.32,52.5L270.44,13.3L300.35,39L300.01,48.02Z" style="fill:rgb(0,107,121);fill-rule:nonzero;"/>
            </g>
            <g transform="matrix(0.796858,0,0,0.796858,-264.38,40.717)">
                <path d="M330.96,24.4L287.9,75.17L299.54,38.28L330.96,24.4Z" style="fill:rgb(0,78,103);fill-rule:nonzero;"/>
            </g>
        </g>
        <g transform="matrix(1.09661,0,0,1.09661,140.15,-134.136)">
            <path d="M46.11,390.8L44.69,390.8L19.9,354.84L19.9,390.8L18.45,390.8L18.45,352.41L19.9,352.41L44.69,388.3L44.69,352.41L46.11,352.41L46.11,390.8Z" style="fill:white;fill-rule:nonzero;"/>
        </g>
        <g transform="matrix(1.09661,0,0,1.09661,140.15,-134.136)">
            <path d="M105.44,374.48C105.44,377.8 104.85,380.74 103.66,383.3C102.47,385.86 100.78,387.84 98.58,389.23C96.38,390.62 93.85,391.33 90.99,391.33C86.67,391.33 83.17,389.79 80.5,386.72C77.83,383.65 76.49,379.5 76.49,374.27L76.49,368.73C76.49,365.43 77.08,362.49 78.27,359.92C79.46,357.35 81.15,355.37 83.36,353.97C85.57,352.57 88.09,351.87 90.94,351.87C93.81,351.87 96.34,352.57 98.55,353.97C100.76,355.37 102.46,357.35 103.65,359.93C104.85,362.51 105.44,365.44 105.44,368.72L105.44,374.48ZM104.02,368.68C104.02,364.04 102.84,360.32 100.49,357.51C98.13,354.71 94.95,353.3 90.95,353.3C86.99,353.3 83.84,354.69 81.48,357.48C79.12,360.27 77.95,364.06 77.95,368.86L77.95,374.48C77.95,377.54 78.48,380.24 79.55,382.59C80.61,384.94 82.13,386.74 84.1,388.01C86.07,389.28 88.37,389.91 91.01,389.91C95.02,389.91 98.19,388.51 100.53,385.72C102.87,382.93 104.04,379.11 104.04,374.28L104.04,368.68L104.02,368.68Z" style="fill:white;fill-rule:nonzero;"/>
        </g>
        <g transform="matrix(1.09661,0,0,1.09661,140.15,-134.136)">
            <path d="M150.43,374.38L137.11,374.38L137.11,390.81L135.69,390.81L135.69,352.42L147.92,352.42C151.77,352.42 154.83,353.41 157.11,355.4C159.39,357.39 160.53,360.08 160.53,363.49C160.53,366.11 159.72,368.4 158.09,370.36C156.46,372.32 154.39,373.54 151.88,374.01L162.14,390.44L162.14,390.81L160.64,390.81L150.43,374.38ZM137.1,372.95L149.21,372.95C152.16,372.95 154.55,372.05 156.37,370.26C158.19,368.47 159.1,366.21 159.1,363.48C159.1,360.49 158.09,358.14 156.08,356.41C154.07,354.68 151.31,353.83 147.81,353.83L137.1,353.83L137.1,372.95Z" style="fill:white;fill-rule:nonzero;"/>
        </g>
        <g transform="matrix(1.09661,0,0,1.09661,140.15,-134.136)">
            <path d="M216.2,353.84L202.22,353.84L202.22,390.81L200.8,390.81L200.8,353.84L186.83,353.84L186.83,352.42L216.2,352.42L216.2,353.84Z" style="fill:white;fill-rule:nonzero;"/>
        </g>
        <g transform="matrix(1.09661,0,0,1.09661,140.15,-134.136)">
            <path d="M271.89,390.8L270.47,390.8L270.47,371.76L245.95,371.76L245.95,390.8L244.53,390.8L244.53,352.41L245.95,352.41L245.95,370.34L270.47,370.34L270.47,352.41L271.89,352.41L271.89,390.8Z" style="fill:white;fill-rule:nonzero;"/>
        </g>
        <g transform="matrix(1.09661,0,0,1.09661,140.15,-134.136)">
            <path d="M338.55,390.8L338.55,352.41L349.18,352.41C352.15,352.41 354.84,353.11 357.25,354.52C359.66,355.93 361.55,357.9 362.92,360.44C364.29,362.98 364.99,365.82 365.03,368.97L365.03,373.95C365.03,377.15 364.36,380.03 363.01,382.6C361.66,385.17 359.79,387.17 357.38,388.61C354.97,390.05 352.28,390.78 349.31,390.8L338.55,390.8ZM339.98,353.84L339.98,389.38L349.18,389.38C351.87,389.38 354.32,388.72 356.52,387.42C358.73,386.11 360.45,384.28 361.7,381.94C362.95,379.6 363.58,376.99 363.6,374.12L363.6,369.19C363.6,366.32 362.99,363.72 361.77,361.39C360.55,359.05 358.84,357.22 356.65,355.89C354.46,354.56 352.04,353.88 349.39,353.85L339.98,353.85L339.98,353.84Z" style="fill:rgb(233,66,93);fill-rule:nonzero;"/>
        </g>
        <g transform="matrix(1.09661,0,0,1.09661,140.15,-134.136)">
            <path d="M416.16,371.77L396.91,371.77L396.91,389.38L418.85,389.38L418.85,390.8L395.49,390.8L395.49,352.41L418.85,352.41L418.85,353.83L396.91,353.83L396.91,370.34L416.16,370.34L416.16,371.77Z" style="fill:rgb(233,66,93);fill-rule:nonzero;"/>
        </g>
        <g transform="matrix(1.09661,0,0,1.09661,140.15,-134.136)">
            <path d="M468.5,371.77L449.25,371.77L449.25,389.38L471.19,389.38L471.19,390.8L447.83,390.8L447.83,352.41L471.19,352.41L471.19,353.83L449.25,353.83L449.25,370.34L468.5,370.34L468.5,371.77Z" style="fill:rgb(233,66,93);fill-rule:nonzero;"/>
        </g>
        <g transform="matrix(1.09661,0,0,1.09661,140.15,-134.136)">
            <path d="M514.78,374.38L501.46,374.38L501.46,390.81L500.04,390.81L500.04,352.42L512.27,352.42C516.12,352.42 519.18,353.41 521.46,355.4C523.74,357.39 524.87,360.08 524.87,363.49C524.87,366.11 524.06,368.4 522.43,370.36C520.8,372.32 518.73,373.54 516.22,374.01L526.48,390.44L526.48,390.81L524.98,390.81L514.78,374.38ZM501.46,372.95L513.57,372.95C516.52,372.95 518.91,372.05 520.73,370.26C522.55,368.47 523.46,366.21 523.46,363.48C523.46,360.49 522.45,358.14 520.44,356.41C518.43,354.69 515.67,353.83 512.17,353.83L501.46,353.83L501.46,372.95Z" style="fill:rgb(233,66,93);fill-rule:nonzero;"/>
        </g>
        <g transform="matrix(1.09661,0,0,1.09661,140.15,-134.136)">
            <path d="M580.1,381.6C580.1,379.97 579.72,378.58 578.95,377.45C578.18,376.32 576.98,375.31 575.34,374.44C573.7,373.57 571.21,372.68 567.89,371.76C564.57,370.84 562.08,369.92 560.41,368.99C558.74,368.06 557.53,366.98 556.76,365.75C555.99,364.52 555.6,363.03 555.6,361.27C555.6,358.48 556.78,356.21 559.13,354.48C561.49,352.75 564.55,351.88 568.33,351.88C570.79,351.88 573,352.36 574.96,353.32C576.92,354.28 578.44,355.62 579.51,357.35C580.58,359.08 581.12,361.04 581.12,363.22L579.7,363.22C579.7,360.35 578.65,357.99 576.54,356.11C574.43,354.23 571.7,353.3 568.34,353.3C564.96,353.3 562.24,354.05 560.15,355.55C558.06,357.05 557.03,358.94 557.03,361.21C557.03,363.51 557.94,365.37 559.75,366.77C561.56,368.18 564.55,369.42 568.71,370.5C572.87,371.58 575.92,372.83 577.86,374.26C580.32,376.07 581.55,378.5 581.55,381.54C581.55,383.47 581.01,385.18 579.92,386.67C578.83,388.16 577.28,389.3 575.28,390.11C573.28,390.92 571.03,391.32 568.53,391.32C565.75,391.32 563.26,390.86 561.04,389.94C558.82,389.02 557.16,387.7 556.04,386C554.92,384.3 554.37,382.28 554.37,379.96L555.79,379.96C555.79,383.11 556.97,385.55 559.32,387.29C561.68,389.03 564.74,389.9 568.52,389.9C571.88,389.9 574.65,389.13 576.83,387.59C579.01,386.06 580.1,384.06 580.1,381.6Z" style="fill:rgb(233,66,93);fill-rule:nonzero;"/>
        </g>
    </g>
</svg>
